<svg width="1024" height="1024" viewBox="0 0 1024 1024" fill="none" xmlns="http://www.w3.org/2000/svg">
<path d="M242.778 183.941C275.923 150.55 328.657 147.042 366.562 174.106L367.455 174.752C387.575 190.771 403.014 213.262 406.044 239.193V239.194C406.488 243.372 406.611 247.512 406.627 251.711L406.628 253.513V253.515L406.634 256.302L406.633 265.519V265.52C406.635 267.749 406.637 269.977 406.64 272.206L406.645 290.562L406.654 308.333C406.663 321.943 406.667 335.553 406.667 349.163L406.672 380.701C406.673 383.729 406.674 386.756 406.675 389.784V390.916L406.676 392.065C406.682 413.235 406.686 434.405 406.686 455.575V457.993L406.685 470.126V477.432L406.69 515.328L406.706 553.223C406.721 581.618 406.73 610.013 406.729 638.408V649.758L406.744 685.723L406.75 703.807L406.747 721.89C406.743 728.418 406.743 734.946 406.751 741.473L406.757 750.444L406.75 759.415V759.416L406.755 765.891C406.832 797.546 400.759 823.895 378.394 847.336C358.316 866.713 334.263 874.975 306.73 874.648H306.731C284.759 874.114 263.35 865.076 247.11 850.34L246.34 849.634L246.334 849.629L243.546 847.117C234.671 838.744 228.612 829.245 223.157 818.506L222.074 816.342L222.07 816.336L221.095 814.425C215.397 802.313 215.055 789.155 215.089 775.944L215.112 770.28V770.278L215.096 763.42C215.082 757.171 215.086 750.921 215.093 744.672L215.09 735.584C215.087 732.555 215.083 729.526 215.079 726.497L215.06 706.775L215.061 687.053C215.066 675.546 215.066 664.038 215.06 652.53L215.057 647.891L215.054 640.901C215.044 619.251 215.038 597.601 215.046 575.951L215.047 573.48L215.055 553.618L215.057 514.885L215.034 476.152C215.008 447.113 214.994 418.073 215.001 389.034L215.003 379.738L215.004 377.426L215 360.181C214.997 354.433 214.992 348.685 214.986 342.937L214.974 323.318L214.988 303.7C214.992 300.365 214.994 297.03 214.994 293.695L214.983 283.689C214.976 280.633 214.973 277.577 214.975 274.521L214.993 265.353C214.995 264.251 214.995 263.148 214.994 262.046L214.984 258.738C214.857 229.894 222.854 205.367 242.778 183.941Z" fill="#00E3D5" stroke="white"/>
<path d="M533.774 274.691C536.303 276.351 538.792 278.059 541.269 279.797C544.561 282.084 547.911 284.284 551.25 286.5C552.809 287.539 554.368 288.578 555.926 289.617C556.745 290.163 557.565 290.71 558.409 291.272C566.543 296.695 566.543 296.695 569.447 298.632C571.473 299.982 573.499 301.333 575.526 302.683C580.682 306.12 585.837 309.559 590.988 313.004C601.438 319.988 611.905 326.945 622.406 333.852C623.326 334.456 624.245 335.061 625.192 335.683C626.124 336.297 627.056 336.91 628.017 337.542C643.248 347.559 658.467 357.591 673.563 367.813C674.182 368.231 674.801 368.649 675.438 369.08C710.816 393.013 710.816 393.013 715.404 414.005C716.82 422.291 716.364 430.833 716.297 439.205C716.291 441.326 716.286 443.446 716.283 445.566C716.27 451.292 716.238 457.017 716.201 462.742C716.165 468.751 716.144 474.761 716.121 480.77C716.08 490.858 716.026 500.946 715.964 511.034C715.893 522.676 715.844 534.318 715.806 545.96C715.769 557.188 715.715 568.416 715.654 579.644C715.628 584.41 715.609 589.175 715.594 593.941C715.576 599.558 715.544 605.175 715.501 610.791C715.487 612.846 715.479 614.9 715.475 616.954C715.441 636.019 713.189 650.404 699.75 664.938C691.972 672.289 682.84 678.024 674 684C672.124 685.28 670.249 686.561 668.375 687.844C664.654 690.388 660.928 692.927 657.199 695.461C652.641 698.56 648.099 701.682 643.563 704.813C637.955 708.68 632.303 712.476 626.628 716.243C621.531 719.631 616.484 723.087 611.446 726.561C596.621 736.781 581.711 746.878 566.807 756.983C559.794 761.738 552.79 766.505 545.813 771.313C545.184 771.743 544.556 772.174 543.908 772.618C541.398 774.34 538.9 776.072 536.43 777.852C526.331 784.995 516.377 787.471 504 786C493.43 783.292 485.439 777.239 479.625 768.063C474.776 759.796 473.555 751.955 473.596 742.492C473.589 741.375 473.582 740.258 473.575 739.108C473.557 735.435 473.561 731.763 473.567 728.09C473.562 725.518 473.557 722.946 473.551 720.374C473.542 714.987 473.544 709.599 473.554 704.212C473.566 698.026 473.552 691.84 473.525 685.653C473.5 679.66 473.497 673.666 473.504 667.673C473.504 665.143 473.498 662.614 473.486 660.085C473.416 643.599 473.674 627.785 481.5 612.813C481.839 612.158 482.178 611.503 482.528 610.829C490.095 597 502.11 588.504 515 580C516.733 578.842 518.464 577.683 520.195 576.523C523.766 574.135 527.342 571.756 530.922 569.383C536.704 565.542 542.428 561.62 548.133 557.664C550.859 555.776 553.606 553.923 556.367 552.086C557.09 551.601 557.813 551.116 558.557 550.616C559.929 549.696 561.305 548.783 562.687 547.878C568.675 543.841 573.477 539.341 575 532C575.725 523.575 575.024 516.903 569.779 510.133C567.287 507.181 564.624 505.082 561.399 502.93C560.846 502.558 560.294 502.186 559.725 501.802C557.823 500.525 555.912 499.263 554 498C552.51 497.007 551.021 496.014 549.532 495.021C543.723 491.149 537.905 487.292 532.08 483.444C480.923 449.631 480.923 449.631 474.421 419.583C473.654 414.88 473.705 410.184 473.71 405.428C473.703 404.305 473.696 403.182 473.689 402.025C473.67 398.333 473.666 394.641 473.664 390.949C473.658 388.368 473.651 385.786 473.644 383.205C473.632 377.8 473.628 372.397 473.63 366.992C473.631 360.774 473.61 354.556 473.578 348.338C473.549 342.323 473.542 336.308 473.543 330.293C473.54 327.749 473.532 325.206 473.516 322.662C473.496 319.094 473.502 315.527 473.514 311.96C473.503 310.923 473.492 309.886 473.48 308.818C473.573 297.862 476.759 287.386 484 279C498.504 264.969 516.932 264.42 533.774 274.691Z" fill="#00E2D4"/>
<path d="M809 448C812.191 449.826 815.203 451.867 818.223 453.961C819.5 454.829 819.5 454.829 820.803 455.715C823.562 457.593 826.313 459.484 829.063 461.375C831.945 463.344 834.83 465.309 837.715 467.275C839.657 468.598 841.598 469.922 843.538 471.248C849.596 475.382 855.685 479.463 861.813 483.492C862.566 483.989 863.319 484.485 864.095 484.997C866.926 486.861 869.756 488.725 872.597 490.573C897.717 506.924 897.717 506.924 902 522C903.233 532.723 901.37 541.299 895.485 550.324C889.225 558.177 880.259 563.476 872 569C871.018 569.66 871.018 569.66 870.016 570.333C866.92 572.41 863.816 574.474 860.707 576.531C856.985 579.001 853.302 581.525 849.625 584.063C843.041 588.603 836.444 593.123 829.835 597.627C828.237 598.716 826.64 599.807 825.044 600.899C820.094 604.269 815.126 607.614 810.113 610.891C809.272 611.443 808.431 611.995 807.564 612.563C800.93 616.28 794.457 616.893 787 616C779.803 613.805 773.892 609.482 770 603C766.828 595.866 766.56 589.135 766.58 581.419C766.572 580.188 766.563 578.958 766.555 577.69C766.535 574.338 766.529 570.987 766.531 567.636C766.531 564.825 766.523 562.015 766.515 559.205C766.495 552.568 766.492 545.93 766.499 539.293C766.506 532.474 766.483 525.657 766.446 518.838C766.415 512.959 766.404 507.079 766.408 501.199C766.41 497.699 766.404 494.199 766.38 490.699C766.353 486.789 766.367 482.88 766.385 478.969C766.372 477.83 766.358 476.69 766.345 475.516C766.433 467.048 768.096 458.665 773.678 451.995C784.283 441.911 796.409 442.199 809 448Z" fill="#00DFD1"/>
</svg>
