<svg xmlns="http://www.w3.org/2000/svg" xmlns:xlink="http://www.w3.org/1999/xlink" viewBox="0,0,256,256" width="96px" height="96px"><g fill-opacity="0.92157" fill="#a933f0" fill-rule="nonzero" stroke="none" stroke-width="1" stroke-linecap="butt" stroke-linejoin="miter" stroke-miterlimit="10" stroke-dasharray="" stroke-dashoffset="0" font-family="none" font-weight="none" font-size="none" text-anchor="none" style="mix-blend-mode: normal"><path d="M29.44,256c-16.25926,0 -29.44,-13.18074 -29.44,-29.44v-197.12c0,-16.25926 13.18074,-29.44 29.44,-29.44h197.12c16.25926,0 29.44,13.18074 29.44,29.44v197.12c0,16.25926 -13.18074,29.44 -29.44,29.44z" id="shape"></path></g><g fill="#fffbfb" fill-rule="nonzero" stroke="none" stroke-width="1" stroke-linecap="butt" stroke-linejoin="miter" stroke-miterlimit="10" stroke-dasharray="" stroke-dashoffset="0" font-family="none" font-weight="none" font-size="none" text-anchor="none" style="mix-blend-mode: normal"><g transform="scale(10.66667,10.66667)"><path d="M20,6h-8l-1.414,-1.414c-0.375,-0.375 -0.884,-0.586 -1.414,-0.586h-5.172c-1.1,0 -2,0.9 -2,2v12c0,1.1 0.9,2 2,2h16c1.1,0 2,-0.9 2,-2v-10c0,-1.1 -0.9,-2 -2,-2z"></path></g></g><g fill-opacity="0.92157" fill="#a933f0" fill-rule="nonzero" stroke="none" stroke-width="1" stroke-linecap="butt" stroke-linejoin="miter" stroke-miterlimit="10" stroke-dasharray="" stroke-dashoffset="0" font-family="none" font-weight="none" font-size="none" text-anchor="none" style="mix-blend-mode: normal"><g><path d="M54.45167,144.505v0c-7.72,-2.22 -13.33667,-4.94667 -16.85,-8.18c-3.51333,-3.23333 -5.27,-7.22667 -5.27,-11.98v0c0,-5.37333 2.14667,-9.81667 6.44,-13.33c4.3,-3.52 9.88667,-5.28 16.76,-5.28v0c4.68667,0 8.86667,0.90667 12.54,2.72c3.67333,1.81333 6.51667,4.31333 8.53,7.5c2.01333,3.18667 3.02,6.67 3.02,10.45v0h-9.04c0,-4.12 -1.31333,-7.36 -3.94,-9.72c-2.62667,-2.36 -6.33,-3.54 -11.11,-3.54v0c-4.44,0 -7.9,0.97667 -10.38,2.93c-2.48667,1.95333 -3.73,4.66333 -3.73,8.13v0c0,2.78 1.18,5.13333 3.54,7.06c2.36,1.92 6.37667,3.67667 12.05,5.27c5.66667,1.59333 10.10333,3.35 13.31,5.27c3.2,1.92667 5.57333,4.17 7.12,6.73c1.54667,2.56 2.32,5.57667 2.32,9.05v0c0,5.52667 -2.15333,9.95667 -6.46,13.29c-4.31333,3.32667 -10.08,4.99 -17.3,4.99v0c-4.68667,0 -9.06333,-0.9 -13.13,-2.7c-4.06,-1.79333 -7.19333,-4.25333 -9.4,-7.38c-2.2,-3.12667 -3.3,-6.67333 -3.3,-10.64v0h9.05c0,4.12667 1.52333,7.38333 4.57,9.77c3.04667,2.39333 7.11667,3.59 12.21,3.59v0c4.74667,0 8.38667,-0.97 10.92,-2.91c2.53333,-1.93333 3.8,-4.57333 3.8,-7.92c0,-3.34667 -1.17333,-5.93333 -3.52,-7.76c-2.34,-1.82667 -6.59,-3.63 -12.75,-5.41zM91.30167,106.675h11.62l22.31,55.69l22.32,-55.69h11.67v68.25h-9v-26.58l0.84,-28.69l-22.41,55.27h-6.89l-22.36,-55.12l0.9,28.54v26.58h-9zM198.78167,174.925h-23.67v-68.25h22.31c7.40667,0 12.97667,1.53 16.71,4.59c3.73333,3.06667 5.6,7.6 5.6,13.6v0c0,3.18667 -0.90667,6.00667 -2.72,8.46c-1.80667,2.45333 -4.27333,4.35 -7.4,5.69v0c3.68667,1.03333 6.6,2.99667 8.74,5.89c2.14,2.88667 3.21,6.33 3.21,10.33v0c0,6.12667 -1.98333,10.94 -5.95,14.44c-3.97333,3.5 -9.58333,5.25 -16.83,5.25zM199.11167,143.005h-15v24.56h14.86c4.18667,0 7.49,-1.08667 9.91,-3.26c2.42,-2.16667 3.63,-5.15667 3.63,-8.97v0c0,-8.22 -4.46667,-12.33 -13.4,-12.33zM184.11167,114.085v21.7h13.59c3.94,0 7.09,-0.98333 9.45,-2.95c2.36,-1.97333 3.54,-4.64667 3.54,-8.02v0c0,-3.74667 -1.09667,-6.47333 -3.29,-8.18c-2.18667,-1.7 -5.51333,-2.55 -9.98,-2.55v0z"></path></g></g></svg>