<svg xmlns="http://www.w3.org/2000/svg" xmlns:xlink="http://www.w3.org/1999/xlink" viewBox="0,0,256,256" width="96px" height="96px"><g fill-opacity="0.92157" fill="#334af0" fill-rule="nonzero" stroke="none" stroke-width="1" stroke-linecap="butt" stroke-linejoin="miter" stroke-miterlimit="10" stroke-dasharray="" stroke-dashoffset="0" font-family="none" font-weight="none" font-size="none" text-anchor="none" style="mix-blend-mode: normal"><path d="M29.44,256c-16.25926,0 -29.44,-13.18074 -29.44,-29.44v-197.12c0,-16.25926 13.18074,-29.44 29.44,-29.44h197.12c16.25926,0 29.44,13.18074 29.44,29.44v197.12c0,16.25926 -13.18074,29.44 -29.44,29.44z" id="shape"></path></g><g fill="#fffbfb" fill-rule="nonzero" stroke="none" stroke-width="1" stroke-linecap="butt" stroke-linejoin="miter" stroke-miterlimit="10" stroke-dasharray="" stroke-dashoffset="0" font-family="none" font-weight="none" font-size="none" text-anchor="none" style="mix-blend-mode: normal"><g transform="scale(10.66667,10.66667)"><path d="M20,6h-8l-1.414,-1.414c-0.375,-0.375 -0.884,-0.586 -1.414,-0.586h-5.172c-1.1,0 -2,0.9 -2,2v12c0,1.1 0.9,2 2,2h16c1.1,0 2,-0.9 2,-2v-10c0,-1.1 -0.9,-2 -2,-2z"></path></g></g><g fill-opacity="0.92157" fill="#334af0" fill-rule="nonzero" stroke="none" stroke-width="1" stroke-linecap="butt" stroke-linejoin="miter" stroke-miterlimit="10" stroke-dasharray="" stroke-dashoffset="0" font-family="none" font-weight="none" font-size="none" text-anchor="none" style="mix-blend-mode: normal"><g><path d="M58.52667,174.925h-18.89v-68.25h19.27c5.93333,0 11.18333,1.31333 15.75,3.94c4.56,2.62667 8.08333,6.36 10.57,11.2c2.48,4.84667 3.73667,10.41 3.77,16.69v0v4.36c0,6.43333 -1.24333,12.07333 -3.73,16.92c-2.48,4.84667 -6.02667,8.56667 -10.64,11.16c-4.60667,2.59333 -9.97333,3.92 -16.1,3.98zM59.13667,114.085h-10.5v53.48h9.47c6.94,0 12.34,-2.15667 16.2,-6.47c3.86,-4.31333 5.79,-10.45333 5.79,-18.42v0v-3.98c0,-7.75333 -1.82333,-13.77667 -5.47,-18.07c-3.64,-4.3 -8.80333,-6.48 -15.49,-6.54zM145.80667,174.925l-6.51,-17.81h-28.6l-6.42,17.81h-9.28l26.06,-68.25h7.88l26.11,68.25zM124.99667,117.785l-11.58,31.92h23.21zM163.34667,106.675l19.4,56.3l19.5,-56.3h9.85l-25.32,68.25h-7.97l-25.26,-68.25z"></path></g></g></svg>